<svg width="40" height="40" viewBox="0 0 40 40" fill="none" xmlns="http://www.w3.org/2000/svg">
<path d="M34.5 11.5391H24.5V7.125C24.5 6.43359 23.9414 5.875 23.25 5.875H7.3125V4.3125C7.3125 4.14062 7.17188 4 7 4H4.8125C4.64062 4 4.5 4.14062 4.5 4.3125V34.9375C4.5 35.1094 4.64062 35.25 4.8125 35.25H7C7.17188 35.25 7.3125 35.1094 7.3125 34.9375V24.625H17V29.0391C17 29.7305 17.5586 30.2891 18.25 30.2891H34.5C35.1914 30.2891 35.75 29.7305 35.75 29.0391V12.7891C35.75 12.0977 35.1914 11.5391 34.5 11.5391Z" fill="#4461F2"/>
</svg>
