<svg width="39" height="38" viewBox="0 0 39 38" fill="none" xmlns="http://www.w3.org/2000/svg">
<path fill-rule="evenodd" clip-rule="evenodd" d="M19.5002 1.58334C9.88141 1.58334 2.0835 9.38125 2.0835 19C2.0835 28.6188 9.88141 36.4167 19.5002 36.4167C29.1189 36.4167 36.9168 28.6188 36.9168 19C36.9168 9.38125 29.1189 1.58334 19.5002 1.58334ZM27.0495 16.055C27.1885 15.8961 27.2943 15.711 27.3608 15.5106C27.4272 15.3102 27.4528 15.0985 27.4363 14.8881C27.4197 14.6776 27.3612 14.4726 27.2642 14.285C27.1672 14.0975 27.0336 13.9313 26.8714 13.7961C26.7093 13.661 26.5217 13.5596 26.3197 13.498C26.1178 13.4364 25.9056 13.4158 25.6956 13.4375C25.4855 13.4591 25.282 13.5225 25.0968 13.624C24.9117 13.7255 24.7487 13.8629 24.6175 14.0283L17.8092 22.1968L14.2862 18.6723C13.9876 18.3838 13.5877 18.2242 13.1725 18.2279C12.7574 18.2315 12.3603 18.398 12.0667 18.6915C11.7731 18.9851 11.6066 19.3822 11.603 19.7974C11.5994 20.2125 11.759 20.6125 12.0474 20.9111L16.7974 25.6611C16.953 25.8166 17.1392 25.9379 17.3443 26.0174C17.5494 26.0969 17.7688 26.1328 17.9885 26.1229C18.2082 26.1129 18.4235 26.0572 18.6205 25.9595C18.8175 25.8617 18.992 25.7239 19.1328 25.555L27.0495 16.055Z" fill="#4461F2"/>
</svg>
