<svg width="25" height="26" viewBox="0 0 25 26" fill="none" xmlns="http://www.w3.org/2000/svg">
<path d="M5.20817 2.58334H19.7915C20.0678 2.58334 20.3327 2.69308 20.5281 2.88843C20.7234 3.08378 20.8332 3.34874 20.8332 3.625V22.375C20.8332 22.6513 20.7234 22.9162 20.5281 23.1116C20.3327 23.3069 20.0678 23.4167 19.7915 23.4167H5.20817C4.9319 23.4167 4.66695 23.3069 4.4716 23.1116C4.27625 22.9162 4.1665 22.6513 4.1665 22.375V3.625C4.1665 3.34874 4.27625 3.08378 4.4716 2.88843C4.66695 2.69308 4.9319 2.58334 5.20817 2.58334ZM9.37484 11.9583V8.83334L4.1665 13L9.37484 17.1667V14.0417H15.6248V11.9583H9.37484Z" fill="#4461F2"/>
</svg>
